<svg width="190" height="55" viewBox="0 0 190 55" fill="none" xmlns="http://www.w3.org/2000/svg">
<path fill-rule="evenodd" clip-rule="evenodd" d="M62.8887 5.91618H61.979V2.11792H63.8756C65.1477 2.11792 65.9418 2.81131 65.9418 3.93615C65.9341 5.06869 64.3228 5.91618 62.8887 5.91618ZM66.8593 9.6451C66.8593 11.3863 65.803 12.4264 64.0375 12.4264H61.9713V6.99479H63.1354C63.7599 6.98708 66.8593 7.11806 66.8593 9.6451ZM69.3573 9.6451C69.3573 7.74982 68.1237 6.88693 67.3836 6.54023C67.1754 6.44007 66.9595 6.35534 66.7359 6.286C66.7976 6.25518 66.8593 6.22437 66.9287 6.19355C67.9155 5.67736 68.4321 4.86839 68.4321 3.85141C68.4321 3.17342 68.116 0.962268 64.0375 0.962268H58.2089V1.87138H59.2497C59.3962 1.87138 59.6352 2.22579 59.6352 2.50314V12.0335C59.6352 12.28 59.4348 12.542 59.2497 12.542H58.2089V13.4511H64.2842C68.0312 13.4588 69.3573 11.4864 69.3573 9.6451Z" fill="#25356F"/>
<path fill-rule="evenodd" clip-rule="evenodd" d="M88.4852 12.542H87.1437V1.86369H88.4852V0.954556H83.3814V1.86369H84.4222C84.6381 1.86369 84.8077 2.03319 84.8077 2.24891V12.149C84.8077 12.3647 84.6381 12.5342 84.4222 12.5342H83.3814V13.4434H88.4852V12.542Z" fill="#25356F"/>
<path fill-rule="evenodd" clip-rule="evenodd" d="M90.4589 3.89763C90.7057 2.10251 91.4921 1.87138 92.1474 1.87138H93.4041C93.5506 1.87138 93.7896 2.22579 93.7896 2.50314V12.1567C93.7896 12.3725 93.62 12.542 93.4041 12.542H92.3633V13.4511H97.4671V12.542H96.1256V1.86369H97.7678C98.4232 1.86369 99.2096 2.0948 99.4563 3.88992L99.5873 4.79135H100.489V0.946867H89.4258V4.79135H90.3279L90.4589 3.89763Z" fill="#25356F"/>
<path fill-rule="evenodd" clip-rule="evenodd" d="M106.534 12.542H105.192V1.86369H106.534V0.954556H101.43V1.86369H102.471C102.687 1.86369 102.856 2.03319 102.856 2.24891V12.149C102.856 12.3647 102.687 12.5342 102.471 12.5342H101.43V13.4434H106.534V12.542Z" fill="#25356F"/>
<path fill-rule="evenodd" clip-rule="evenodd" d="M109.047 13.1737C109.687 13.4588 110.767 13.7901 112.293 13.7901C115.786 13.7901 117.027 11.8177 117.027 9.9764C117.027 7.41855 114.752 6.37845 112.925 5.53867C111.522 4.8915 110.312 4.33678 110.312 3.34292C110.312 2.37987 111.067 1.77893 112.293 1.77893C113.604 1.77893 114.56 2.53396 114.914 3.85141L115.153 4.80675H115.94V1.81744L115.786 1.70959C115.516 1.50928 115.207 1.33207 114.86 1.17028C114.074 0.815876 113.211 0.630985 112.293 0.630985C109.949 0.630985 108.315 2.02547 108.315 4.02091C108.315 6.25518 110.381 7.23364 112.201 8.09653C113.719 8.81304 115.03 9.43709 115.03 10.5773C115.03 11.8332 113.958 12.6421 112.293 12.6421C110.427 12.6421 109.024 11.2938 108.754 9.9918L108.523 8.96713H107.729V12.4495L107.883 12.5574C108.222 12.7885 108.615 12.9965 109.047 13.1737Z" fill="#25356F"/>
<path fill-rule="evenodd" clip-rule="evenodd" d="M123.326 12.542H121.984V7.23364H127.543V12.149C127.543 12.3647 127.373 12.5342 127.158 12.5342H126.117V13.4434H131.221V12.5342H129.879V1.85598H131.221V0.946867H126.117V1.85598H127.158C127.343 1.85598 127.543 2.12563 127.543 2.36447V6.15501H121.984V1.85598H123.326V0.946867H118.222V1.85598H119.263C119.479 1.85598 119.648 2.02547 119.648 2.2412V12.1413C119.648 12.3571 119.479 12.5266 119.263 12.5266H118.222V13.4357H123.326V12.542Z" fill="#25356F"/>
<path fill-rule="evenodd" clip-rule="evenodd" d="M62.0561 31.2559H60.6298V22.6193L64.716 32.3345H65.7105L69.7119 22.6501V30.863C69.7119 31.0787 69.5423 31.2482 69.3264 31.2482H68.3704V32.1573H73.3895V31.2482H72.048V20.5699H73.3895V19.6608H69.5808L65.8801 28.8059L62.0175 19.6608H58.047V20.5699H59.0878C59.3037 20.5699 59.4733 20.7394 59.4733 20.9551V30.1542C59.4733 31.2405 58.9876 31.2405 58.7486 31.2405H58.047V32.1496H62.0561V31.2559Z" fill="#25356F"/>
<path fill-rule="evenodd" clip-rule="evenodd" d="M78.4008 27.3113L80.0584 22.7888L81.716 27.3113H78.4008ZM82.1169 32.1727H87.0512V31.2636H86.2648C85.7328 31.2636 85.5941 31.148 85.3551 30.4931L81.238 19.422H79.9659L76.0185 30.2466C75.7409 30.9862 75.4711 31.2636 75.0239 31.2636H74.1527V32.1727H77.9999V31.2636H77.0516L78.023 28.3976H82.1169L83.1424 31.2636H82.1247V32.1727H82.1169Z" fill="#25356F"/>
<path fill-rule="evenodd" clip-rule="evenodd" d="M97.9991 20.5776V28.2435L90.9755 19.6685H87.7605V20.5776H88.8013C89.0172 20.5776 89.1868 20.7471 89.1868 20.9628V30.4469C89.1868 31.1403 88.971 31.2559 88.4621 31.2559H87.7605V32.165H91.7696V31.2559H90.3433V22.7503L98.2767 32.4192H99.1556V21.402C99.1556 20.6932 99.3792 20.5776 99.8803 20.5776H100.582V19.6685H96.6499V20.5776H97.9991Z" fill="#25356F"/>
<path fill-rule="evenodd" clip-rule="evenodd" d="M104.182 27.3113L105.84 22.7888L107.498 27.3113H104.182ZM99.9266 32.1727H103.774V31.2636H102.825L103.797 28.3976H107.891L108.916 31.2636H107.898V32.1727H112.833V31.2636H112.046C111.584 31.2636 111.422 31.0248 111.129 30.2466L107.012 19.422H105.74L101.792 30.4931C101.569 31.0787 101.337 31.2636 100.798 31.2636H99.9266V32.1727Z" fill="#25356F"/>
<path fill-rule="evenodd" clip-rule="evenodd" d="M119.27 20.4929C121.028 20.4929 122.393 21.7179 122.686 22.9044L122.925 23.8597H123.835V20.9628L123.704 20.855C123.364 20.5699 122.963 20.3157 122.516 20.0999C121.483 19.5992 120.388 19.3372 119.263 19.3372C115.67 19.3372 112.848 22.2341 112.848 25.9245C112.848 29.6149 115.662 32.5117 119.263 32.5117C120.974 32.5117 122.231 32.0571 122.987 31.6796C123.472 31.4331 123.896 31.1557 124.289 30.8245L124.421 30.7166V28.1587C124.421 27.943 124.59 27.7735 124.806 27.7735H125.677V26.7411H120.974V27.7735H122.262V30.2389C122.1 30.4007 121.884 30.5702 121.614 30.7397C121.152 31.0248 120.365 31.3561 119.27 31.3561C117.389 31.3561 115.362 29.6611 115.362 25.9245C115.362 22.1878 117.389 20.4929 119.27 20.4929Z" fill="#25356F"/>
<path fill-rule="evenodd" clip-rule="evenodd" d="M133.549 20.8242C134.559 20.8242 135.068 21.2633 135.237 22.2803L135.368 23.0893H136.263V19.6608H126.209V20.5699H127.25C127.466 20.5699 127.636 20.7394 127.636 20.9551V30.8553C127.636 31.071 127.466 31.2405 127.25 31.2405H126.209V32.1496H136.687V28.7212H135.792L135.661 29.5301C135.484 30.5548 134.983 30.9862 133.973 30.9862H129.972V25.9245H132.678V27.4345H133.749V23.251H132.678V24.0369C132.678 24.5069 132.339 24.8458 131.868 24.8458H129.972V20.7933H133.549V20.8242Z" fill="#25356F"/>
<path fill-rule="evenodd" clip-rule="evenodd" d="M141.652 31.2559H140.226V22.6193L144.312 32.3345H145.306L149.308 22.6501V30.863C149.308 31.0787 149.138 31.2482 148.922 31.2482H147.966V32.1573H152.985V31.2482H151.644V20.5699H152.985V19.6608H149.177L145.476 28.8059L141.613 19.6608H137.643V20.5699H138.684C138.9 20.5699 139.069 20.7394 139.069 20.9551V30.1542C139.069 31.2405 138.583 31.2405 138.344 31.2405H137.643V32.1496H141.652V31.2559Z" fill="#25356F"/>
<path fill-rule="evenodd" clip-rule="evenodd" d="M163.378 28.7443L163.239 29.5532C163.062 30.6164 162.638 31.0094 161.674 31.0094H157.681V25.9476H160.51V27.4576H161.458V23.2741H160.51V24.06C160.51 24.5454 160.032 24.869 159.585 24.869H157.688V20.8164H161.266C162.229 20.8164 162.653 21.2094 162.831 22.2726L162.969 23.0815H163.987V19.6531H153.934V20.5622H154.974C155.19 20.5622 155.36 20.7317 155.36 20.9474V30.8476C155.36 31.0633 155.19 31.2328 154.974 31.2328H153.934V32.1419H164.411V28.7443H163.378Z" fill="#25356F"/>
<path fill-rule="evenodd" clip-rule="evenodd" d="M174.241 20.5776H175.583V28.2435L168.559 19.6685H165.344V20.5776H166.385C166.601 20.5776 166.77 20.7471 166.77 20.9628V30.4469C166.77 31.1403 166.555 31.2559 166.046 31.2559H165.344V32.165H169.353V31.2559H167.927V22.7503L175.86 32.4192H176.739V21.402C176.739 20.6932 176.963 20.5776 177.464 20.5776H178.165V19.6685H174.241V20.5776Z" fill="#25356F"/>
<path fill-rule="evenodd" clip-rule="evenodd" d="M178.936 23.513H179.962L180.093 22.6039C180.324 20.9243 180.879 20.5776 181.658 20.5776H182.915C183.131 20.5776 183.3 20.7471 183.3 20.9628V30.863C183.3 31.0787 183.131 31.2482 182.915 31.2482H181.874V32.1573H186.978V31.2482H185.636V20.5699H187.278C188.057 20.5699 188.612 20.9166 188.844 22.5962L188.975 23.5053H190V19.6608H178.936V23.513Z" fill="#25356F"/>
<path fill-rule="evenodd" clip-rule="evenodd" d="M67.0135 38.9217H68.4398V45.925C68.4398 48.3904 67.2062 49.6925 64.8779 49.6925C62.9813 49.6925 61.8865 48.2209 61.8865 45.6554V38.9217H63.228V38.0126H58.1241V38.9217H59.1649C59.3808 38.9217 59.5504 39.0912 59.5504 39.307V45.7556C59.5504 48.7526 61.632 50.8481 64.6234 50.8481C67.6457 50.8481 69.5963 48.8527 69.5963 45.7556V39.9927C69.5963 38.9218 70.1051 38.9217 70.321 38.9217H71.1074V38.0126H67.0135V38.9217Z" fill="#25356F"/>
<path fill-rule="evenodd" clip-rule="evenodd" d="M82.1247 38.9217V46.5876L75.101 38.0126H71.8861V38.9217H72.9269C73.1428 38.9217 73.3124 39.0912 73.3124 39.307V48.7911C73.3124 49.4844 73.0965 49.6 72.5877 49.6H71.8861V50.5091H75.8951V49.6H74.4688V41.0944L82.4022 50.7634H83.2811V39.7461C83.2811 39.0373 83.5047 38.9217 84.0059 38.9217H84.7074V38.0126H80.7754V38.9217H82.1247Z" fill="#25356F"/>
<path fill-rule="evenodd" clip-rule="evenodd" d="M85.6018 38.9217H86.6426C86.8585 38.9217 87.0281 39.0912 87.0281 39.307V49.2071C87.0281 49.4228 86.8585 49.5923 86.6426 49.5923H85.6018V50.5014H90.7057V49.5923H89.3641V38.9141H90.7057V38.0049H85.6018V38.9217Z" fill="#25356F"/>
<path fill-rule="evenodd" clip-rule="evenodd" d="M101.962 38.9217L98.9474 47.0961L95.6476 38.9217H96.5574V38.0126H91.6231V38.9217H92.4095C92.9338 38.9217 93.1265 39.0758 93.3964 39.6999L97.868 50.7634H98.878L102.91 39.7769C103.134 39.176 103.458 38.9217 103.99 38.9217H105.03V38.0126H100.736V38.9217H101.962Z" fill="#25356F"/>
<path fill-rule="evenodd" clip-rule="evenodd" d="M115.292 47.8974C115.115 48.9606 114.691 49.3535 113.727 49.3535H109.733V44.2917H112.44V45.8018H113.511V41.6183H112.44V42.4041C112.44 42.8741 112.1 43.2131 111.63 43.2131H109.733V39.1606H113.311C114.274 39.1606 114.699 39.5535 114.876 40.6167L115.015 41.4257H116.032V37.9972H105.979V38.9063H107.02C107.235 38.9063 107.405 39.0758 107.405 39.2916V49.1917C107.405 49.4074 107.235 49.5769 107.02 49.5769H105.979V50.486H116.456V47.0576H115.439L115.292 47.8974Z" fill="#25356F"/>
<path fill-rule="evenodd" clip-rule="evenodd" d="M135.584 42.5967C134.181 41.9496 132.971 41.3949 132.971 40.401C132.971 39.4379 133.726 38.837 134.952 38.837C136.556 38.837 137.196 39.9696 137.45 40.9095L137.689 41.8648H138.599V38.8755L138.452 38.7677C138.183 38.5674 137.874 38.3901 137.527 38.2284C136.741 37.874 135.877 37.6891 134.96 37.6891C132.616 37.6891 130.982 39.0835 130.982 41.0867C130.982 43.3209 133.048 44.2994 134.867 45.1623C136.386 45.8788 137.697 46.5029 137.697 47.6431C137.697 48.8989 136.625 49.7079 134.96 49.7079C133.079 49.7079 131.822 48.375 131.544 47.0576L131.313 46.0329H130.396V49.5153L130.55 49.6231C130.889 49.862 131.275 50.0777 131.714 50.2549C132.354 50.54 133.433 50.8712 134.96 50.8712C138.452 50.8712 139.694 48.8989 139.694 47.0576C139.686 44.4766 137.412 43.4288 135.584 42.5967Z" fill="#25356F"/>
<path fill-rule="evenodd" clip-rule="evenodd" d="M140.873 38.9217H141.914C142.13 38.9217 142.3 39.0912 142.3 39.307V49.2071C142.3 49.4228 142.13 49.5923 141.914 49.5923H140.873V50.5014H145.977V49.5923H144.636V38.9141H145.977V38.0049H140.873V38.9217Z" fill="#25356F"/>
<path fill-rule="evenodd" clip-rule="evenodd" d="M146.925 41.8571H147.951L148.082 40.948C148.29 39.4302 148.753 39.1683 149.647 39.1683H150.904C151.12 39.1683 151.289 39.3378 151.289 39.5535V49.2071C151.289 49.4228 151.12 49.5923 150.904 49.5923H149.863V50.5014H154.967V49.5923H153.625V39.1606H155.267C156.162 39.1606 156.624 39.4303 156.832 40.9403L156.964 41.8417H157.989V37.9972H146.925V41.8571Z" fill="#25356F"/>
<path fill-rule="evenodd" clip-rule="evenodd" d="M167.087 38.9217H168.035L165.444 44.0375L162.784 38.9217H163.64V38.0126H158.706V38.9217H159.577C159.978 38.9217 160.248 39.0142 160.51 39.4765L163.74 45.6939V49.2071C163.74 49.4228 163.571 49.5923 163.355 49.5923H162.314V50.5014H167.418V49.5923H166.077V45.432L169.053 39.5535C169.361 38.968 169.569 38.9141 169.985 38.9141H170.941V38.0049H167.094V38.9217H167.087Z" fill="#25356F"/>
<path fill-rule="evenodd" clip-rule="evenodd" d="M74.1142 6.57877V1.9022H75.6793C77.4525 1.9022 77.5913 3.59716 77.5913 4.11336C77.5913 4.24433 77.599 4.37531 77.6067 4.49858C77.6453 5.34606 77.6761 6.01634 75.872 6.57106H74.1142V6.57877ZM75.5405 12.5805H74.1142V7.5341H74.384C74.5691 7.5341 74.6462 7.57263 74.6693 7.58804L77.8611 12.1567L78.7709 13.505H81.7238L79.0176 9.83002L77.5065 7.60344C79.4262 7.38001 80.0816 6.50942 80.0816 4.49858C80.0816 1.94843 78.9559 1.00078 75.9183 1.00078H70.3441V1.90991H71.3849C71.6008 1.90991 71.7704 2.07941 71.7704 2.29513V12.072C71.7704 12.3185 71.57 12.5805 71.3849 12.5805H70.3441V13.4896H75.5328V12.5805H75.5405Z" fill="#25356F"/>
<path fill-rule="evenodd" clip-rule="evenodd" d="M121.753 38.9295H123.318C123.981 38.9295 124.482 39.1683 124.814 39.6306C125.084 40.0158 125.23 40.5551 125.23 41.1406C125.23 41.2716 125.238 41.4103 125.245 41.5181V41.5567C125.253 41.6799 125.253 41.7878 125.253 41.9034C125.253 42.1653 125.222 42.3502 125.153 42.5197C124.968 42.9666 124.428 43.3287 123.511 43.606H121.761V38.9295H121.753ZM125.153 44.6153C125.947 44.5228 126.51 44.3148 126.911 43.9835C127.489 43.4981 127.736 42.7585 127.736 41.5181C127.736 40.2007 127.45 39.3686 126.811 38.8216C126.163 38.2669 125.168 38.0203 123.572 38.0203H117.998V38.9295H119.039C119.255 38.9295 119.425 39.0989 119.425 39.3147V49.0915C119.425 49.2148 119.371 49.3535 119.286 49.4536C119.209 49.5461 119.116 49.6 119.039 49.6H117.998V50.5091H123.187V49.6H121.761V44.5536H122.031C122.208 44.5536 122.293 44.5922 122.316 44.5999L125.515 49.1686L126.317 50.3474L126.425 50.5091H129.386L126.68 46.8418L125.153 44.6153Z" fill="#25356F"/>
<path fill-rule="evenodd" clip-rule="evenodd" d="M48.0011 36.9186C48.1707 39.438 46.6982 41.7339 45.0483 43.5059C42.134 46.6492 37.7548 49.2919 33.9154 51.1948C31.7412 52.2735 26.8224 54.5 24.4015 54.5C22.821 54.5 20.3307 53.6679 18.8504 53.144C16.1289 52.1733 13.4227 50.956 10.8939 49.5615C8.28032 48.1131 5.62044 46.3488 3.52338 44.207C1.61135 42.2578 0 39.7923 0 36.9725V0.5H48.0089V36.9186H48.0011Z" fill="#25356F"/>
<path fill-rule="evenodd" clip-rule="evenodd" d="M1.727 36.9725C1.727 41.7955 7.99505 45.9867 11.7266 48.0514C17.0155 50.9791 22.6745 52.7819 24.4015 52.7819C27.123 52.7819 38.7108 47.8203 43.7839 42.3425C45.5648 40.4241 46.3975 38.6213 46.2741 36.988V2.11021H1.727V36.9725ZM24.4015 53.0208C22.6514 53.0208 16.9307 51.2103 11.6109 48.2595C8.65809 46.6261 6.29119 44.9081 4.57962 43.1669C2.5211 41.0713 1.48028 38.9834 1.48028 36.9648V1.84827H46.5209V36.9648C46.6519 38.6598 45.7961 40.5243 43.9689 42.4966C40.885 45.8249 35.9353 48.5445 33.26 49.862C29.567 51.6956 25.8355 53.0208 24.4015 53.0208Z" fill="white"/>
<path fill-rule="evenodd" clip-rule="evenodd" d="M11.0019 13.0967H12.6209C13.8082 13.0967 14.6949 13.7207 15.2423 14.9611C15.7588 16.1322 15.7742 17.4188 15.7742 17.5575C15.7742 17.7963 15.7511 19.0522 15.2962 20.2309C15.0495 20.8704 14.718 21.3789 14.3094 21.7333C13.8159 22.1647 13.2069 22.3881 12.4899 22.3881H11.0019V13.0967ZM14.371 11.5327C14.186 11.8794 13.9316 12.1259 13.6078 12.3031C13.2454 12.5034 12.7751 12.6036 12.22 12.6036H11.0019V5.79291H12.22C12.7597 5.79291 13.23 5.91618 13.6001 6.16272C13.9162 6.37074 14.1783 6.67122 14.371 7.05644C14.718 7.74983 14.7951 8.56648 14.7951 9.1366C14.7874 9.93786 14.7411 10.8547 14.371 11.5327ZM19.3439 14.9457C18.9507 14.3063 18.3647 13.8132 17.6169 13.4819C16.869 13.1429 16.0209 12.9272 15.0958 12.8347C15.7357 12.6883 16.3139 12.488 16.869 12.2184C18.303 11.525 19.0278 10.4849 19.0278 9.1366C19.0278 8.03488 18.4881 7.10266 17.4781 6.43238C16.337 5.67735 14.6563 5.29984 12.4821 5.29984H4.98823V5.79291H6.18325C6.77691 5.79291 7.26262 6.23977 7.26262 6.78678V21.402C7.26262 21.949 6.77691 22.3959 6.18325 22.3959H4.98823V22.8889H12.8831C15.3116 22.8889 17.1543 22.3882 18.3647 21.3866C19.4518 20.4929 20.0069 19.2525 20.0069 17.6808C20.0069 16.5791 19.7833 15.6545 19.3439 14.9457Z" fill="white"/>
<path fill-rule="evenodd" clip-rule="evenodd" d="M29.3049 13.1891C29.3589 13.1429 29.436 13.089 29.5362 13.035L29.7521 12.9118C29.9448 12.8039 30.0836 12.7115 30.1607 12.6267C30.2995 12.488 30.3689 12.3185 30.3689 12.1182C30.3689 11.9333 30.3072 11.7638 30.1761 11.6097C30.045 11.4556 29.8369 11.3786 29.567 11.3786C29.2355 11.3786 28.9965 11.5019 28.8654 11.7407C28.7883 11.8717 28.7498 12.0489 28.7498 12.2492V12.3108H29.1584V12.2492C29.1584 12.1182 29.1816 12.0181 29.2201 11.9487C29.2818 11.8255 29.3974 11.7638 29.567 11.7638C29.6827 11.7638 29.7675 11.7946 29.8369 11.864C29.9063 11.9333 29.9371 12.0181 29.9371 12.1336C29.9371 12.2338 29.8986 12.3185 29.8292 12.3879C29.7752 12.4418 29.6904 12.5034 29.5593 12.5805L29.2586 12.7577C29.0428 12.8809 28.904 13.0196 28.8269 13.1814C28.7575 13.3355 28.7112 13.5127 28.7035 13.713V13.7747H30.3766V13.3817H29.1738C29.1815 13.3201 29.2355 13.2508 29.3049 13.1891Z" fill="white"/>
<path fill-rule="evenodd" clip-rule="evenodd" d="M31.6333 11.9795C31.6949 12.1336 31.7258 12.3416 31.7258 12.5959C31.7258 12.9349 31.6872 13.1737 31.6024 13.2893C31.5253 13.4048 31.4251 13.4588 31.3017 13.4588C31.1475 13.4588 31.0396 13.3663 30.9702 13.1814C30.924 13.0504 30.9008 12.8655 30.9008 12.6421C30.9008 12.3493 30.9394 12.1182 31.0088 11.9718C31.0782 11.8332 31.1784 11.7715 31.3172 11.7715C31.4868 11.7715 31.5793 11.8408 31.6333 11.9795ZM31.3094 11.394C30.9625 11.394 30.7158 11.5789 30.577 11.9487C30.5076 12.1413 30.4768 12.3725 30.4768 12.6344C30.4768 12.9734 30.5385 13.2508 30.6464 13.4588C30.7929 13.713 31.0088 13.844 31.3017 13.844C31.6256 13.844 31.8645 13.6899 32.0033 13.374C32.0958 13.166 32.1421 12.8964 32.1421 12.5882C32.1421 12.2569 32.0881 11.9872 31.9802 11.7946C31.8568 11.525 31.6255 11.394 31.3094 11.394Z" fill="white"/>
<path fill-rule="evenodd" clip-rule="evenodd" d="M43.676 20.7317L43.4986 20.6547C41.2859 19.6454 38.865 19.2833 36.4981 19.6069L36.4365 19.368C37.5235 18.9751 38.6492 18.7825 39.7825 18.8056C40.592 18.8133 41.417 18.8826 42.2188 19.0136C42.2805 19.0213 42.3422 19.0059 42.3961 18.9674C42.4578 18.9212 42.5041 18.8441 42.5118 18.7594C42.5118 18.744 42.5195 18.7286 42.5195 18.7054V7.83458H43.6837L43.676 20.7317ZM34.6632 19.6839L34.856 19.5452C35.7117 18.9289 37.2614 18.197 39.7902 18.197C40.4764 18.2047 41.1703 18.2509 41.8564 18.3511L41.9952 18.3742V6.85611L41.9027 6.83299C41.1471 6.64809 40.3685 6.54794 39.5898 6.54794C38.1403 6.54794 36.1126 6.91775 34.694 8.69746L34.6632 8.72826V19.6839ZM33.9385 19.5452C33.0981 18.9289 31.5562 18.2047 29.0042 18.2047C28.3103 18.2047 27.6165 18.2586 26.9303 18.3511L26.7915 18.3742V6.85611L26.884 6.83299C27.6396 6.64809 28.4183 6.54794 29.197 6.54794C30.6541 6.54794 32.6818 6.91775 34.0927 8.69746L34.1235 8.72826L34.1389 19.6916L33.9385 19.5452ZM32.2809 19.6069L32.3426 19.368C31.2632 18.9751 30.1453 18.7902 29.0119 18.8056C28.2024 18.8133 27.3852 18.8827 26.5911 19.0213C26.5756 19.0213 26.5602 19.0213 26.5525 19.0213C26.406 19.0213 26.2904 18.8827 26.2904 18.7132V7.83458H25.1185V20.724L25.2958 20.6469C27.5008 19.6531 29.914 19.2833 32.2809 19.6069ZM43.9458 7.23364H42.5118V6.60956C42.5195 6.46318 42.4347 6.33991 42.319 6.30139C41.4247 6.03944 40.4995 5.90847 39.582 5.91617C38.1018 5.91617 36.0201 6.27829 34.4859 8.01947L34.3934 8.12732L34.3008 8.01947C32.7974 6.28599 30.7004 5.91617 29.2047 5.91617C28.2795 5.91617 27.362 6.04715 26.4677 6.3091C26.3521 6.34762 26.275 6.47089 26.275 6.61727V7.23364H24.8564C24.7099 7.23364 24.5942 7.37231 24.5942 7.54181V21.2325C24.5942 21.402 24.7099 21.5407 24.8564 21.5407C24.8949 21.5407 24.9412 21.5253 24.9797 21.5021C25.396 21.2556 29.143 19.1754 34.324 20.6238H34.4165C34.4319 20.6238 34.455 20.6238 34.4705 20.6238C37.2845 19.8303 39.6591 20.0999 41.1626 20.4698C42.6043 20.8242 43.5989 21.3481 43.8147 21.5021C43.8918 21.5561 43.9921 21.5561 44.0691 21.5021C44.154 21.4482 44.2079 21.3481 44.2079 21.2402V7.5495C44.2079 7.36459 44.0846 7.23364 43.9458 7.23364Z" fill="white"/>
<path fill-rule="evenodd" clip-rule="evenodd" d="M25.743 34.6304C25.4115 33.4516 24.9026 32.3268 24.9257 31.2251C24.972 28.282 27.4468 26.0246 30.9008 26.7103C31.0627 26.7411 31.1861 26.9568 31.3557 27.2265C29.8677 28.3205 30.1992 30.0617 30.4228 30.6164C30.5847 31.0093 32.0187 32.8584 33.1367 34.2529C33.7689 35.3469 34.1235 36.6027 33.8691 38.0897V38.0974C33.846 38.1898 33.7226 38.7677 33.607 38.8755C33.5992 38.8832 33.5993 38.8832 33.5993 38.8909L33.0981 39.4688L31.8491 38.76H31.8954L25.743 34.6304ZM31.6641 27.6117C31.055 28.0663 30.1915 29.3067 31.1013 30.7936C31.641 31.6719 32.1036 32.2806 32.4813 32.6735C32.9516 32.5888 33.4373 32.5271 33.5761 32.2806C33.8922 31.5332 34.1235 30.7474 34.2623 29.9384C33.2061 29.2682 32.9362 27.6965 31.6641 27.6117ZM31.3094 38.7446L25.4037 34.8076C21.9112 34.8076 18.303 34.8538 14.6871 34.823C14.1629 34.8153 13.6463 34.6381 13.2377 34.3145C12.8214 33.991 12.5361 33.5364 12.4128 33.0279C12.274 32.5965 12.2894 32.1265 12.4513 31.7027C12.6132 31.279 12.9139 30.9169 13.3071 30.6781C13.7851 30.3391 14.3479 30.1465 14.9339 30.1234C15.5198 30.1002 16.098 30.2543 16.5992 30.5548C17.7094 31.2328 18.6346 32.2266 19.6831 33.0048C20.269 33.4825 21.0092 33.729 21.7724 33.6905C22.528 33.652 23.245 33.3284 23.777 32.7968C23.9389 32.5965 23.8926 32.1958 23.9389 31.8954C23.6151 31.8954 23.2142 31.7567 22.9752 31.8954C22.5203 32.2652 21.9343 32.4501 21.3484 32.4038C20.7625 32.3576 20.2151 32.088 19.8219 31.6565C18.9584 30.8861 18.0563 30.1619 17.1157 29.4916C16.1751 28.96 15.0726 28.8059 14.0241 29.0524C12.9756 29.299 12.0581 29.9307 11.4644 30.8245C11.025 31.6334 10.9248 32.5734 11.1946 33.4517C11.4645 34.33 12.0658 35.0618 12.8831 35.501C13.4382 35.7861 13.4613 36.0249 13.0989 36.5719C12.8137 37.0958 12.3665 37.5119 11.8268 37.7584C11.2871 38.0049 10.6703 38.0743 10.0844 37.951C9.7683 37.9202 9.4522 37.9202 9.1361 37.951C8.16467 37.9587 8.0336 38.2206 8.3497 39.1375C8.6658 40.0466 8.95106 40.9711 9.32113 41.8571C10.4082 44.4381 9.32114 44.2532 12.4744 44.2532C13.2608 44.2609 13.6155 44.0529 13.6155 43.2054C13.6001 42.0882 13.4382 41.834 12.4976 41.7647L11.3103 41.6876C11.5724 40.6783 11.5724 40.6783 12.3588 40.6783C13.3688 40.6783 14.3788 40.6783 15.3887 40.6783C16.3679 40.7169 17.3393 40.4318 18.1411 39.8694C18.9429 39.307 19.5289 38.4903 19.8064 37.5658C19.8835 37.3578 20.2151 37.1728 20.4386 36.9956L22.235 37.7353L22.2273 37.743C23.6999 38.2284 25.1802 38.6983 26.645 39.2145C27.7938 39.6228 28.9348 40.1621 29.2972 41.4026C29.3974 41.834 29.621 42.2192 29.9525 42.512C30.284 42.8048 30.7004 42.9897 31.1398 43.0359C33.1598 43.4519 35.0487 44.4535 37.1997 44.2917C38.3331 44.2147 38.8882 43.3749 38.202 42.4889C37.7934 42.1268 37.2845 41.8956 36.7448 41.8186C36.2206 41.6876 35.573 41.8725 35.1643 41.6183C33.8228 40.7169 32.5661 39.7384 31.3094 38.7446ZM21.7339 37.82C21.3407 37.689 20.6237 37.4348 20.4309 37.3655C20.4309 37.8277 20.4232 38.1667 20.4232 38.4903C20.5003 38.9372 20.5312 39.3994 20.5157 39.854C20.3924 40.5705 19.7833 41.364 20.03 41.911C20.2767 42.4581 21.225 42.7046 21.9035 43.0282C23.0368 43.5521 24.0314 44.3456 25.4037 44.2378C26.1747 44.1762 26.5602 43.9681 26.5679 43.1515C26.5756 42.3425 26.352 41.8109 25.4654 41.7416C25.1802 41.7416 24.9257 41.7416 24.679 41.7416C24.1702 41.7416 23.9466 41.5181 24.1702 40.9634C24.6251 39.7692 24.2781 39.0219 23.1062 38.4903C22.6822 38.3362 22.2813 38.1128 21.7339 37.82ZM34.2469 38.0666C34.2469 37.3886 34.2931 36.7029 34.2469 36.0326C34.1852 35.709 34.2315 35.3854 34.3625 35.085C34.4936 34.7845 34.7172 34.5303 34.9947 34.3608C35.4959 34.1065 35.9122 33.6982 36.1743 33.2051C36.4365 32.712 36.5444 32.1419 36.4673 31.5872C36.4596 31.4023 36.4981 31.2251 36.5675 31.0633C36.6369 30.8938 36.7448 30.7474 36.8836 30.6318C37.0224 30.5086 37.1843 30.4238 37.3539 30.3699C37.5312 30.316 37.7163 30.3083 37.8936 30.3314C38.7957 30.3853 38.68 31.0556 38.68 31.6334C38.7494 32.2343 38.6877 32.843 38.5181 33.4285C38.3408 34.0064 38.0555 34.5534 37.6623 35.0156C36.8759 36.0634 36.2129 37.1883 35.5036 38.29C35.4342 38.4595 35.3263 38.6136 35.1952 38.7368C35.0564 38.8601 34.8945 38.9526 34.7172 38.9988C34.5553 39.045 34.3857 39.0527 34.2237 39.0373L34.2469 38.0666Z" fill="white"/>
<path fill-rule="evenodd" clip-rule="evenodd" d="M37.1535 13.1891C37.2074 13.1429 37.2845 13.089 37.3848 13.035L37.6006 12.9118C37.7934 12.8039 37.9322 12.7115 38.0093 12.6267C38.148 12.488 38.2174 12.3185 38.2174 12.1182C38.2174 11.9333 38.1557 11.7638 38.0247 11.6097C37.8936 11.4556 37.6854 11.3786 37.4156 11.3786C37.0841 11.3786 36.8451 11.5019 36.714 11.7407C36.6369 11.8717 36.5984 12.0489 36.5984 12.2492V12.3108H37.007V12.2492C37.007 12.1182 37.0301 12.0181 37.0687 11.9487C37.1303 11.8255 37.246 11.7638 37.4156 11.7638C37.5312 11.7638 37.6161 11.7946 37.6854 11.864C37.7548 11.9333 37.7857 12.0181 37.7857 12.1336C37.7857 12.2338 37.7471 12.3185 37.6777 12.3879C37.6238 12.4418 37.539 12.5034 37.4079 12.5805L37.1072 12.7577C36.8913 12.8809 36.7526 13.0196 36.6755 13.1814C36.6061 13.3355 36.5598 13.5127 36.5521 13.713V13.7747H38.2251V13.3817H37.0224C37.0301 13.3201 37.0841 13.2508 37.1535 13.1891Z" fill="white"/>
<path fill-rule="evenodd" clip-rule="evenodd" d="M39.4818 11.9795C39.5435 12.1336 39.5743 12.3416 39.5743 12.5959C39.5743 12.9349 39.5358 13.1737 39.451 13.2893C39.3739 13.4048 39.2737 13.4588 39.1503 13.4588C38.9961 13.4588 38.8882 13.3663 38.8188 13.1814C38.7725 13.0504 38.7494 12.8655 38.7494 12.6421C38.7494 12.3493 38.7879 12.1182 38.8573 11.9718C38.9267 11.8332 39.0269 11.7715 39.1657 11.7715C39.3353 11.7715 39.4279 11.8408 39.4818 11.9795ZM39.158 11.394C38.8111 11.394 38.5644 11.5789 38.4256 11.9487C38.3562 12.1413 38.3254 12.3725 38.3254 12.6344C38.3254 12.9734 38.387 13.2508 38.495 13.4588C38.6415 13.713 38.8573 13.844 39.1503 13.844C39.4741 13.844 39.7131 13.6899 39.8519 13.374C39.9444 13.166 39.9907 12.8964 39.9907 12.5882C39.9907 12.2569 39.9367 11.9872 39.8365 11.7946C39.7054 11.525 39.4741 11.394 39.158 11.394Z" fill="white"/>
</svg>
