<svg width="56" height="56" viewBox="0 0 56 56" fill="none" xmlns="http://www.w3.org/2000/svg">
<g clip-path="url(#clip0_145_2743)">
<path fill-rule="evenodd" clip-rule="evenodd" d="M35.596 22.0039C35.8192 21.7808 35.8192 21.419 35.596 21.1958L34.8042 20.4039C34.581 20.1808 34.2192 20.1808 33.996 20.4039L28.0001 26.3999L22.0042 20.4039C21.781 20.1808 21.4192 20.1808 21.1961 20.4039L20.4042 21.1958C20.181 21.419 20.181 21.7808 20.4042 22.0039L26.4001 27.9999L20.4042 33.9958C20.181 34.219 20.181 34.5808 20.4042 34.804L21.1961 35.5958C21.4192 35.819 21.781 35.819 22.0042 35.5958L28.0001 29.5999L33.996 35.5958C34.2192 35.819 34.581 35.819 34.8042 35.5958L35.596 34.804C35.8192 34.5808 35.8192 34.219 35.596 33.9958L29.6001 27.9999L35.596 22.0039Z" fill="#A0AEC0"/>
</g>
<defs>
<clipPath id="clip0_145_2743">
<rect width="16" height="16" fill="white" transform="translate(20 20)"/>
</clipPath>
</defs>
</svg>
