<svg width="40" height="40" viewBox="0 0 40 40" fill="none" xmlns="http://www.w3.org/2000/svg">
<path d="M20.0005 27C21.7852 26.9991 23.5264 26.4493 24.988 25.425L29.2142 30.5L30.5005 29.38L26.318 24.2875C27.7091 22.8282 28.5536 20.9334 28.7087 18.9233C28.8638 16.9132 28.3201 14.9112 27.1694 13.2558C26.0187 11.6004 24.3317 10.3931 22.3935 9.83812C20.4553 9.2831 18.385 9.41439 16.5325 10.2098C14.6799 11.0052 13.1589 12.4159 12.2266 14.2034C11.2942 15.9909 11.0077 18.0456 11.4155 20.02C11.8233 21.9943 12.9004 23.7673 14.4647 25.0392C16.029 26.311 17.9844 27.0036 20.0005 27ZM20.0005 11.25C21.3849 11.25 22.7383 11.6605 23.8895 12.4297C25.0406 13.1989 25.9378 14.2921 26.4676 15.5712C26.9974 16.8503 27.1361 18.2578 26.866 19.6156C26.5959 20.9735 25.9292 22.2208 24.9502 23.1997C23.9713 24.1787 22.724 24.8454 21.3661 25.1155C20.0082 25.3856 18.6008 25.247 17.3217 24.7171C16.0426 24.1873 14.9494 23.2901 14.1802 22.139C13.411 20.9878 13.0005 19.6345 13.0005 18.25C13.0005 16.3935 13.738 14.613 15.0507 13.3002C16.3635 11.9875 18.144 11.25 20.0005 11.25Z" fill="#1C335F"/>
</svg>
