<svg width="20" height="21" viewBox="0 0 20 21" fill="none" xmlns="http://www.w3.org/2000/svg">
<g clip-path="url(#clip0_145_2720)">
<path d="M8.8664 8.24094L5.61293 11.4944C5.09685 12.0101 4.80678 12.7098 4.80653 13.4394C4.80628 14.169 5.09587 14.8688 5.6116 15.3849C6.12733 15.9009 6.82695 16.191 7.55655 16.1913C8.28615 16.1915 8.98597 15.9019 9.50205 15.3862L16.7332 8.15419C17.1243 7.76311 17.4346 7.29883 17.6463 6.78783C17.858 6.27684 17.9669 5.72915 17.9669 5.17604C17.9669 4.62294 17.858 4.07525 17.6463 3.56425C17.4346 3.05326 17.1243 2.58897 16.7332 2.1979L16.7323 2.19701C16.3414 1.80606 15.8773 1.49594 15.3665 1.28435C14.8558 1.07277 14.3083 0.963867 13.7555 0.963867C13.2026 0.963867 12.6552 1.07277 12.1444 1.28435C11.6336 1.49594 11.1696 1.80606 10.7786 2.19701L2.66135 10.3143C1.5976 11.3781 1 12.8208 1 14.3252C1 15.8295 1.5976 17.2723 2.66135 18.336C3.72509 19.3997 5.16783 19.9973 6.67219 19.9973C8.17655 19.9973 9.61929 19.3997 10.683 18.336L18.8056 10.2134C18.8673 10.1518 18.9161 10.0786 18.9495 9.99812C18.9828 9.91761 19 9.83132 19 9.74418C19 9.65704 18.9828 9.57076 18.9495 9.49025C18.9161 9.40974 18.8673 9.33659 18.8056 9.27497C18.744 9.21336 18.6709 9.16448 18.5904 9.13113C18.5099 9.09778 18.4236 9.08062 18.3364 9.08062C18.2493 9.08062 18.163 9.09778 18.0825 9.13113C18.002 9.16448 17.9288 9.21336 17.8672 9.27497L9.74462 17.3976C8.92658 18.1969 7.82638 18.6414 6.68268 18.6348C5.53899 18.6281 4.44405 18.1708 3.63538 17.362C2.82671 16.5532 2.36954 15.4582 2.36304 14.3145C2.35654 13.1708 2.80123 12.0707 3.60065 11.2527L11.7171 3.13631C11.9848 2.86853 12.3027 2.65612 12.6526 2.51124C13.0024 2.36635 13.3774 2.29182 13.7561 2.2919C14.1348 2.29198 14.5097 2.36668 14.8595 2.51172C15.2093 2.65676 15.5271 2.8693 15.7947 3.1372C16.3355 3.67794 16.6392 4.41133 16.6392 5.17604C16.6392 5.94075 16.3355 6.67414 15.7947 7.21488L8.56275 14.4469C8.4308 14.5789 8.27415 14.6835 8.10174 14.755C7.92933 14.8264 7.74455 14.8631 7.55793 14.8631C7.37132 14.8631 7.18653 14.8264 7.01412 14.755C6.84171 14.6835 6.68506 14.5789 6.55312 14.4469L6.55135 14.446C6.28466 14.1791 6.13486 13.8172 6.13486 13.4399C6.13486 13.0625 6.28466 12.7007 6.55135 12.4337L9.8057 9.17936C9.93015 9.0548 10 8.88591 9.99993 8.70984C9.99984 8.53377 9.92982 8.36494 9.80526 8.2405C9.6807 8.11606 9.51181 8.0462 9.33574 8.04628C9.15967 8.04636 8.99085 8.11639 8.8664 8.24094Z" fill="black"/>
</g>
<defs>
<clipPath id="clip0_145_2720">
<rect width="20" height="20" fill="white" transform="translate(0 0.5)"/>
</clipPath>
</defs>
</svg>
