<svg xmlns="http://www.w3.org/2000/svg" viewBox="1 21.400001525878906 509.8970031738281 469.1999816894531"><g><path d="M431.2 164.1c14.7-15.6 23-36.1 23-57.9 0-46.7-38.1-84.8-84.8-84.8s-84.8 38-84.8 84.8c0 21.9 8.3 42.4 23.1 58-10.1 4.7-19.6 10.6-28.3 17.6 2.9-9.7 4.5-19.9 4.5-30.4C283.8 93.3 236.5 46 178.4 46S73.1 93.3 73.1 151.3c0 28.2 11 54.6 30.6 74.2C41.8 252.8 1 314.3 1 382.7c0 12.5 1.4 25.2 4.2 37.8 8.3 37 40.6 62.8 78.4 62.8h189.6c16.9 0 33.4-5.4 47.2-15.5 17.6 14.7 39.7 22.8 63 22.8 54.5 0 98.8-44.3 98.8-98.8 0-10.7-1.8-21.1-5.1-31.1 2.7-1.6 5.3-3.3 7.6-5.2 11.5-9.2 19.6-22.2 22.8-36.6 14.4-63.8-18.1-128.1-76.3-154.8zm-130.7-57.9c0-38 30.9-68.8 68.8-68.8 38 0 68.9 30.9 68.9 68.8 0 21.4-9.7 41.2-26.6 54.3-12.2 9.5-26.8 14.5-42.3 14.5-3.9 0-7.7-.3-11.4-.9-5.8-1-11.3-2.7-16.6-5-5-2.2-9.8-5.1-14.2-8.5-16.9-13.2-26.6-33-26.6-54.4zM89 151.3C89 102 129.1 62 178.4 62s89.4 40.1 89.4 89.4c0 27.8-12.6 53.5-34.5 70.6-15.8 12.3-34.8 18.8-54.9 18.8-5 0-10-.4-14.8-1.2-3.4-.6-6.8-1.4-10.2-2.4-3.9-1.1-7.7-2.5-11.4-4.1-6.5-2.9-12.7-6.6-18.5-11.1-21.9-17.2-34.5-42.9-34.5-70.7zm184.2 316H83.6c-30.4 0-56.2-20.7-62.9-50.3-2.5-11.4-3.8-23-3.8-34.3 0-64.6 40.2-122.6 100.4-145.5.6.5 1.3.8 1.9 1.3 1.1.7 2.1 1.4 3.2 2.1 1.3.8 2.6 1.6 4 2.4 1.1.6 2.2 1.3 3.3 1.8 1.4.7 2.8 1.4 4.2 2 1.1.5 2.3 1.1 3.4 1.6 1.4.6 2.9 1.2 4.4 1.7 1.2.4 2.3.9 3.5 1.3 1.5.5 3.1.9 4.6 1.4 1.1.3 2.3.7 3.4 1 1.6.4 3.3.7 4.9 1 1.1.2 2.2.5 3.3.6 1.8.3 3.7.5 5.6.7.9.1 1.9.3 2.8.3a120.68 120.68 0 0 0 17 0c.9-.1 1.9-.2 2.8-.3 1.9-.2 3.8-.4 5.6-.7l3.3-.6c1.7-.3 3.3-.6 5-1 1.2-.3 2.3-.6 3.4-1 1.5-.4 3.1-.9 4.6-1.4 1.2-.4 2.3-.8 3.5-1.3 1.5-.5 2.9-1.1 4.4-1.7 1.2-.5 2.3-1 3.4-1.6 1.4-.7 2.8-1.3 4.2-2l3.3-1.8c1.3-.8 2.7-1.5 4-2.4 1.1-.7 2.2-1.4 3.2-2.1.6-.4 1.3-.8 1.9-1.3 2.1.8 4.1 1.6 6.1 2.5 4.4 1.9 8.6 3.9 12.7 6.2 1.4.8 2.7 1.6 4.1 2.4 2.7 1.6 5.4 3.1 8 4.8 1.6 1 3 2.2 4.5 3.3 2.3 1.6 4.6 3.3 6.7 5 1.5 1.2 3 2.6 4.5 3.9 2 1.8 4.1 3.5 6 5.4 1.5 1.4 2.8 2.9 4.3 4.4 1.8 1.9 3.6 3.8 5.4 5.8 1.4 1.6 2.6 3.2 3.9 4.8 1.6 2 3.2 4.1 4.8 6.2 1.2 1.7 2.4 3.5 3.5 5.2l4.2 6.6c1.1 1.8 2.1 3.7 3.1 5.6.7 1.3 1.3 2.6 2 4-1 .7-1.9 1.5-2.8 2.3-.5.4-.9.7-1.4 1.1-1.5 1.3-3 2.6-4.4 4-.3.3-.6.6-.8.9-1.1 1.1-2.2 2.2-3.3 3.4-.5.5-1 1.1-1.5 1.7-.8.9-1.6 1.8-2.4 2.8-.5.6-1 1.3-1.5 2-.7.9-1.4 1.8-2 2.7l-1.5 2.1-1.8 2.7c-.5.7-.9 1.5-1.4 2.3-.5.9-1.1 1.8-1.6 2.8-.4.8-.8 1.6-1.3 2.4-.5.9-1 1.9-1.4 2.8-.4.8-.8 1.6-1.1 2.4-.4 1-.8 1.9-1.2 2.9-.3.8-.7 1.7-1 2.5-.4 1-.7 2-1.1 3-.3.8-.6 1.7-.8 2.5-.3 1-.6 2.1-.9 3.1-.2.8-.5 1.7-.7 2.5-.3 1.1-.5 2.2-.7 3.3-.2.8-.4 1.6-.5 2.5-.2 1.2-.4 2.3-.5 3.5l-.3 2.4c-.2 1.3-.3 2.6-.4 3.9-.1.7-.1 1.3-.2 2-.1 2-.2 4-.2 6 0 3.2.2 6.3.5 9.5.1 1 .3 2.1.4 3.1.3 2.1.6 4.2 1 6.3.2 1.2.5 2.4.8 3.6.4 1.9.9 3.7 1.4 5.5.4 1.3.8 2.5 1.2 3.7.6 1.7 1.2 3.5 1.9 5.2.5 1.2 1 2.5 1.6 3.7.8 1.7 1.6 3.3 2.4 4.9.6 1.2 1.2 2.4 1.9 3.5.9 1.6 1.9 3.2 2.9 4.8.7 1.1 1.4 2.2 2.1 3.2 1.2 1.7 2.5 3.3 3.8 4.9.7.8 1.3 1.7 2 2.5.1.1.2.2.2.3-10.2 7-22.7 10.8-35.4 10.8zm110.3 7.4c-21.5 0-41.8-8.2-57.3-23-16.3-15.5-25.7-37.4-25.7-59.9 0-28 14-53.9 37.3-69.3 13.6-8.9 29.4-13.7 45.6-13.7 6.3 0 12.5.7 18.4 2.1 2.7.6 5.3 1.4 7.9 2.2 16.6 5.5 31.1 16.2 41.3 30.5 1.2 1.6 2.3 3.3 3.3 5.1 2.1 3.5 4 7.2 5.6 11.1 4.2 10.1 6.3 20.8 6.3 31.9.2 45.8-37 83-82.7 83zm108.6-159.3c-2.4 10.9-8.5 20.7-17.3 27.7-1.2 1-2.5 1.9-3.8 2.8-.6-1.2-1.3-2.4-2-3.5-.4-.7-.7-1.4-1.2-2-1-1.7-2.1-3.3-3.3-5l-.6-.9c-1.4-1.9-2.8-3.8-4.3-5.6-.3-.4-.7-.8-1.1-1.2-1.2-1.4-2.3-2.7-3.6-4-.6-.6-1.2-1.2-1.8-1.7-1.1-1.1-2.1-2.1-3.2-3.1l-2.1-1.8c-1-.9-2.1-1.8-3.2-2.7-.8-.6-1.6-1.2-2.3-1.8-1.1-.8-2.1-1.6-3.2-2.3-.8-.6-1.7-1.1-2.5-1.6-1.1-.7-2.2-1.4-3.3-2l-2.7-1.5c-1.1-.6-2.3-1.2-3.4-1.8-.9-.5-1.8-.9-2.8-1.3l-3.6-1.5c-.9-.4-1.9-.8-2.9-1.1-1.2-.5-2.5-.9-3.7-1.3-1-.3-1.9-.6-2.9-.9-1.3-.4-2.6-.7-3.9-1-1-.2-1.9-.5-2.9-.7-1.4-.3-2.8-.5-4.2-.8-.9-.2-1.8-.3-2.8-.5-1.6-.2-3.1-.4-4.7-.5-.8-.1-1.6-.2-2.4-.2-2.4-.2-4.8-.3-7.2-.3-2.3 0-4.5.1-6.7.2-.7 0-1.4.1-2.2.2-1.5.1-3 .3-4.5.5-.8.1-1.7.3-2.5.4-1.4.2-2.8.5-4.2.8-.8.2-1.7.4-2.5.5-1.4.3-2.8.7-4.2 1.1-.8.2-1.5.4-2.3.7-1.6.5-3.2 1.1-4.8 1.6-.5.2-1 .3-1.5.5-2.1.8-4.1 1.7-6.1 2.6-.6.3-1.2.6-1.7.9-1.1.6-2.3 1.1-3.4 1.7-.1-.2-.3-.4-.4-.7-1.9-3.6-3.8-7.1-5.9-10.5-.3-.4-.5-.9-.8-1.4-2.1-3.4-4.4-6.8-6.8-10-.5-.6-.9-1.3-1.4-1.9-2.4-3.2-4.8-6.3-7.4-9.3-.4-.5-.9-1-1.3-1.5-2.7-3.1-5.5-6.1-8.5-9l-.1-.1c-2.9-2.9-6-5.6-9.1-8.3-.5-.4-.9-.8-1.4-1.2-3.1-2.5-6.2-5-9.5-7.3-.6-.4-1.2-.9-1.8-1.3-3.3-2.3-6.7-4.5-10.1-6.6-.4-.3-.9-.5-1.4-.8-3.5-2.1-7.1-4-10.7-5.8-.2-.1-.3-.2-.5-.3 13.7-24 35.6-42.9 61.2-52.9.4.3.8.5 1.2.8.8.5 1.6 1.1 2.4 1.6 1.1.7 2.2 1.4 3.3 2 .8.5 1.7.9 2.6 1.4 1.1.6 2.3 1.1 3.4 1.7l2.7 1.2c1.2.5 2.4 1 3.6 1.4.9.3 1.8.7 2.7 1 1.2.4 2.5.8 3.7 1.1.9.2 1.8.5 2.7.7 1.3.3 2.7.6 4 .8.9.2 1.7.4 2.6.5l4.5.6c.7.1 1.5.2 2.2.3a77.33 77.33 0 0 0 13.6 0c.7-.1 1.5-.2 2.2-.3 1.5-.2 3-.3 4.5-.6.9-.1 1.7-.3 2.6-.5 1.3-.3 2.7-.5 4-.8.9-.2 1.8-.5 2.7-.7 1.3-.4 2.5-.7 3.8-1.1l2.7-.9c1.2-.4 2.4-.9 3.6-1.4.9-.4 1.8-.8 2.6-1.2 1.2-.5 2.3-1.1 3.5-1.7.9-.4 1.7-.9 2.5-1.4 1.1-.6 2.2-1.3 3.3-2 .8-.5 1.6-1 2.5-1.6.4-.3.8-.5 1.2-.8 55.9 21.2 87.7 80.4 74.5 139.2zm-67.3 50h-14.9v-14.9c0-14.6-11.9-26.4-26.4-26.4-14.6 0-26.4 11.9-26.4 26.4v14.9h-14.9c-14.6 0-26.4 11.9-26.4 26.4 0 14.6 11.9 26.4 26.4 26.4H357v14.9c0 14.6 11.9 26.4 26.4 26.4 14.6 0 26.4-11.9 26.4-26.4v-14.9h14.9c14.6 0 26.4-11.9 26.4-26.4.1-14.6-11.7-26.4-26.3-26.4zm0 36.9h-30.9v30.9c0 5.8-4.7 10.5-10.5 10.5s-10.5-4.7-10.5-10.5v-30.9H342c-5.8 0-10.5-4.7-10.5-10.5s4.7-10.5 10.5-10.5h31v-30.9c0-5.8 4.7-10.5 10.5-10.5s10.5 4.7 10.5 10.5v30.9h30.9c5.8 0 10.5 4.7 10.5 10.5-.1 5.8-4.8 10.5-10.6 10.5z" fill="#648ac8" opacity="1" data-original="#648ac8"></path></g></svg>