
<svg xmlns="http://www.w3.org/2000/svg" xmlns:xlink="http://www.w3.org/1999/xlink" viewBox="0 0 20 20"><path d="M 11.708 5 C 13.373 5.325 14.675 6.627 15 8.292 M 11.708 1.667 C 15.191 2.054 17.942 4.801 18.333 8.284 M 8.523 11.553 C 7.549 10.581 6.746 9.451 6.15 8.21 C 6.112 8.139 6.081 8.065 6.056 7.989 C 5.99 7.743 6.034 7.48 6.178 7.27 C 6.218 7.215 6.266 7.167 6.361 7.072 C 6.652 6.78 6.798 6.635 6.893 6.488 C 7.253 5.936 7.253 5.224 6.893 4.671 C 6.798 4.525 6.653 4.379 6.361 4.088 L 6.198 3.925 C 5.756 3.483 5.534 3.261 5.296 3.141 C 4.823 2.902 4.265 2.902 3.792 3.141 C 3.554 3.261 3.332 3.483 2.89 3.925 L 2.758 4.057 C 2.317 4.498 2.096 4.719 1.928 5.019 C 1.741 5.352 1.606 5.869 1.608 6.251 C 1.608 6.595 1.675 6.831 1.808 7.301 C 2.549 9.911 3.948 12.288 5.87 14.203 C 7.786 16.125 10.162 17.524 12.773 18.265 C 13.243 18.398 13.479 18.465 13.823 18.466 C 14.205 18.467 14.722 18.333 15.055 18.146 C 15.355 17.977 15.575 17.756 16.017 17.316 L 16.147 17.184 C 16.591 16.741 16.812 16.519 16.932 16.282 C 17.172 15.809 17.172 15.25 16.932 14.777 C 16.812 14.539 16.591 14.317 16.148 13.875 L 15.985 13.713 C 15.695 13.421 15.548 13.276 15.402 13.18 C 14.85 12.821 14.137 12.821 13.585 13.18 C 13.439 13.276 13.293 13.421 13.002 13.713 C 12.906 13.808 12.859 13.856 12.803 13.895 C 12.593 14.039 12.331 14.084 12.085 14.018 C 12.009 13.993 11.934 13.961 11.863 13.924 C 10.623 13.328 9.494 12.526 8.522 11.552 Z" fill="transparent" stroke-width="1.2" stroke="rgb(100,138,200)" stroke-linecap="round" stroke-linejoin="round" stroke-dasharray=""></path></svg>